<?xml version="1.0" encoding="UTF-8"?>
<svg id="Layer_1" xmlns="http://www.w3.org/2000/svg" version="1.1" viewBox="0 0 595.28 841.89">
  <!-- Generator: Adobe Illustrator 29.4.0, SVG Export Plug-In . SVG Version: 2.1.0 Build 152)  -->
  <defs>
    <style>
      .st0 {
        font-size: 72px;
      }

      .st0, .st1, .st2 {
        fill: #861b4c;
      }

      .st0, .st3, .st2 {
        isolation: isolate;
      }

      .st0, .st2 {
        font-family: MonotypeCorsiva, 'Monotype Corsiva';
      }

      .st4 {
        fill: #ddccbf;
      }

      .st4, .st5, .st1, .st6, .st7, .st8 {
        stroke-miterlimit: 10;
      }

      .st4, .st6 {
        stroke: #010101;
      }

      .st5 {
        fill: #fff;
        stroke: #231f20;
      }

      .st1, .st7, .st8 {
        stroke: #861b4c;
      }

      .st6, .st7 {
        fill: none;
      }

      .st8, .st9 {
        fill: #f3c8d9;
      }

      .st2 {
        font-size: 24px;
      }
    </style>
  </defs>
  <path class="st5" d="M344,307.21"/>
  <polygon class="st1" points="413.54 264.28 472.57 325.53 472.57 743.02 412.23 796.21 157.36 795.21 103.19 746.48 102.17 327.14 158.78 264.28 413.54 264.28"/>
  <path class="st6" d="M-117,435.14"/>
  <path class="st6" d="M500.88,264.28"/>
  <path class="st6" d="M21.25,24.79"/>
  <g>
    <polygon class="st8" points="221.77 81.32 351.17 81.32 376.24 120.81 345.83 187.58 350.36 189.32 350.36 206.25 343.89 219.14 350.36 234.46 360.87 254.6 362.49 264.28 209.64 264.28 212.87 260.25 220.15 239.29 229.05 227.2 229.86 219.14 225.81 207.86 224.19 198.99 225.81 193.35 232.28 190.13 195.89 122.43 221.77 81.32"/>
    <path class="st7" d="M225.59,207.86c15.96,2.78,34.95,4.9,56.34,4.99,26.34.11,49.26-2.89,67.71-6.6"/>
    <path class="st7" d="M349.64,234.32c-16.17,4.62-38.25,9.24-64.71,9.96-26.24.71-48.39-2.65-64.71-6.35"/>
    <polyline class="st7" points="195.18 122.43 217.68 115.17 247.74 115.17 322.96 115.17 344.79 115.17 375.53 120.81"/>
    <path class="st7" d="M353.18,239.64c-16.77,4.68-39.67,9.37-67.12,10.09-27.22.72-50.19-2.69-67.12-6.43"/>
    <path class="st7" d="M228.6,217.02c15.08,2.78,33.02,4.9,53.24,4.99,24.89.11,46.55-2.89,63.98-6.6"/>
    <path class="st7" d="M231.57,190.13c11.23,3.87,29.15,8.52,51.45,7.95,25.2-.65,51.13-5.27,62.49-10.37"/>
  </g>
  <path class="st4" d="M388.69,188.67"/>
  <polygon class="st9" points="161.37 276.21 412.5 276.21 460.4 325.21 460.4 729.21 415.24 781.21 161.37 781.21 116.22 731.21 116.22 327.21 161.37 276.21"/>
  <g class="st3">
    <g class="st3">
      <text class="st0" transform="translate(201.89 465.6)"><tspan x="0" y="0">petalia</tspan></text>
    </g>
  </g>
  <g class="st3">
    <g class="st3">
      <text class="st2" transform="translate(194.49 502.21)"><tspan x="0" y="0">The Essence For You</tspan></text>
    </g>
  </g>
  <g class="st3">
    <g class="st3">
      <text class="st2" transform="translate(235.94 682.12)"><tspan x="0" y="0" xml:space="preserve">Blush   Bloom</tspan></text>
    </g>
  </g>
  <g class="st3">
    <g class="st3">
      <text class="st2" transform="translate(256.98 708.67)"><tspan x="0" y="0">200</tspan></text>
    </g>
    <g class="st3">
      <text class="st2" transform="translate(288.66 708.67)"><tspan x="0" y="0" xml:space="preserve"> ML</tspan></text>
    </g>
  </g>
</svg>