<?xml version="1.0" encoding="UTF-8"?>
<svg id="Layer_1" xmlns="http://www.w3.org/2000/svg" version="1.1" viewBox="0 0 595.28 841.89">
  <!-- Generator: Adobe Illustrator 29.6.1, SVG Export Plug-In . SVG Version: 2.1.1 Build 9)  -->
  <defs>
    <style>
      .st0 {
        stroke: #399746;
      }

      .st0, .st1 {
        fill: #2d3518;
      }

      .st0, .st2, .st3 {
        stroke-miterlimit: 10;
      }

      .st4 {
        fill: #ddccbf;
      }

      .st5, .st6, .st7, .st8 {
        fill: #399745;
      }

      .st2 {
        fill: #fff;
        stroke: #231f20;
      }

      .st3 {
        fill: none;
        stroke: #010101;
      }

      .st6 {
        font-size: 72px;
      }

      .st6, .st7, .st8 {
        font-family: MonotypeCorsiva, 'Monotype Corsiva';
      }

      .st7 {
        font-size: 24px;
      }

      .st8 {
        font-size: 20px;
      }
    </style>
  </defs>
  <path class="st2" d="M325,268"/>
  <polygon class="st0" points="203.19 42.11 332.14 42.11 357.13 81.6 326.82 148.37 331.34 150.11 331.34 167.04 324.89 179.93 331.34 195.25 341.81 215.4 343.43 225.07 191.1 225.07 194.32 221.04 201.58 200.08 210.44 187.99 211.25 179.93 207.22 168.65 205.61 159.78 207.22 154.14 213.67 150.92 177.4 83.22 203.19 42.11"/>
  <polygon class="st5" points="394.3 225.07 453.13 286.32 453.13 703.81 393 757 139 756 85.01 707.27 84 287.93 140.42 225.07 394.3 225.07"/>
  <path class="st3" d="M-134.42,395.93"/>
  <path class="st0" d="M207,168.65c15.91,2.78,34.83,4.9,56.15,4.99,26.25.11,49.09-2.89,67.48-6.6"/>
  <polyline class="st0" points="176.69 83.22 199.11 75.96 229.07 75.96 304.03 75.96 325.79 75.96 356.42 81.6"/>
  <path class="st0" d="M331.62,190.11c-15.32,4.62-36.24,9.24-61.31,9.95-24.87.7-45.84-2.66-61.31-6.36"/>
  <path class="st3" d="M481.34,225.07"/>
  <path class="st3" d="M3.36-14.42"/>
  <path class="st0" d="M334.15,200.44c-16.71,4.68-39.54,9.37-66.89,10.09-27.13.72-50.01-2.69-66.89-6.43"/>
  <path class="st0" d="M210,177.81c15.03,2.78,32.91,4.9,53.06,4.99,24.8.11,46.39-2.89,63.76-6.6"/>
  <path class="st0" d="M212.96,150.92c11.19,3.87,29.05,8.52,51.27,7.95,25.11-.65,50.95-5.27,62.28-10.37"/>
  <g>
    <path class="st4" d="M369.54,149.46"/>
    <path class="st3" d="M369.54,149.46"/>
  </g>
  <polygon class="st1" points="142 239 392.26 239 440 288 440 692 395 744 142 744 97 694 97 290 142 239"/>
  <text class="st6" transform="translate(182.38 425.39)"><tspan x="0" y="0">petalia</tspan></text>
  <text class="st7" transform="translate(176 463)"><tspan x="0" y="0">The Essence For You</tspan></text>
  <text class="st8" transform="translate(230.8 656.29)"><tspan x="0" y="0">Green Olives</tspan><tspan x="22.79" y="24">200</tspan><tspan x="49.18" y="24">ml</tspan></text>
</svg>