<?xml version="1.0" encoding="UTF-8"?>
<svg id="Layer_1" xmlns="http://www.w3.org/2000/svg" version="1.1" viewBox="0 0 595.28 841.89">
  <!-- Generator: Adobe Illustrator 29.6.1, SVG Export Plug-In . SVG Version: 2.1.1 Build 9)  -->
  <defs>
    <style>
      .st0 {
        fill: #ddccbf;
      }

      .st1, .st2, .st3 {
        fill: #231f20;
      }

      .st2 {
        stroke: #53514e;
      }

      .st2, .st4, .st5, .st3 {
        stroke-miterlimit: 10;
      }

      .st4 {
        fill: #fff;
        stroke: #231f20;
      }

      .st5 {
        fill: none;
        stroke: #010101;
      }

      .st3 {
        stroke: #39b54a;
      }

      .st6 {
        font-size: 24px;
      }

      .st6, .st7 {
        font-family: MonotypeCorsiva, 'Monotype Corsiva';
      }

      .st6, .st7, .st8 {
        fill: #53514e;
      }

      .st7 {
        font-size: 72px;
      }
    </style>
  </defs>
  <path class="st4" d="M325,268"/>
  <polygon class="st3" points="203.19 43.11 332.14 43.11 357.13 82.6 326.82 149.37 331.34 151.11 331.34 168.04 324.89 180.93 331.34 196.25 341.81 216.4 343.43 226.07 191.1 226.07 194.32 222.04 201.58 201.08 210.44 188.99 211.25 180.93 207.22 169.65 205.61 160.78 207.22 155.14 213.67 151.92 177.4 84.22 203.19 43.11"/>
  <polygon class="st8" points="394.3 225.07 453.13 286.32 453.13 703.81 393 757 139 756 85.01 707.27 84 287.93 140.42 225.07 394.3 225.07"/>
  <path class="st5" d="M-134.42,395.93"/>
  <path class="st2" d="M208,168.65c15.78,2.78,34.54,4.9,55.7,4.99,26.03.11,48.69-2.89,66.93-6.6"/>
  <polyline class="st2" points="176.69 83.22 199.11 75.96 229.07 75.96 304.03 75.96 325.79 75.96 356.42 81.6"/>
  <path class="st2" d="M329.01,190.46c-15.01,4.54-35.51,9.04-60.05,9.6-24.33.56-44.84-2.92-59.96-6.7"/>
  <path class="st5" d="M481.34,225.07"/>
  <path class="st5" d="M3.36-14.42"/>
  <path class="st2" d="M334.15,200.44c-16.38,4.68-38.76,9.36-65.58,10.09-26.6.72-49.03-2.69-65.58-6.43"/>
  <path class="st2" d="M210,177.81c15.03,2.78,32.91,4.9,53.06,4.99,24.8.11,46.39-2.89,63.76-6.6"/>
  <path class="st2" d="M212.96,150.92c11.19,3.87,29.05,8.52,51.27,7.95,25.11-.65,50.95-5.27,62.28-10.37"/>
  <g>
    <path class="st0" d="M369.54,149.46"/>
    <path class="st5" d="M369.54,149.46"/>
  </g>
  <polygon class="st1" points="142 239 392.26 239 440 288 440 692 395 744 142 744 97 694 97 290 142 239"/>
  <text class="st7" transform="translate(182.38 427.39)"><tspan x="0" y="0">petalia</tspan></text>
  <text class="st6" transform="translate(176 463)"><tspan x="0" y="0">The Essence For You</tspan></text>
  <text class="st6" transform="translate(208.69 659.04)"><tspan x="0" y="0">Nocturnal Steel</tspan><tspan x="33.82" y="28.8">200</tspan><tspan x="65.5" y="28.8">ML</tspan></text>
</svg>